# WaveFront *.obj file (generated by Cinema 4D)

mtllib ./A6_截角二十面体.mtl

v -0.00037033244735 81.9764404296875 128.47624206542969
v 0.00037640155642 24.52202987670898 150.41593933105469
v 49.75584030151367 103.92399597167969 99.75191497802734
v 99.51136016845703 68.41749572753906 92.966796875
v 30.75117111206055 139.43632507324219 53.27436828613281
v 61.50100708007812 139.44140625 0.01268002949655
v -30.75056266784668 139.43658447265625 53.27399826049805
v -61.50160980224609 139.44113159179688 0.01303553488106
v -49.75606155395508 103.92443084716797 99.75133514404297
v -99.51108551025391 68.41706085205078 92.96735382080078
v -49.75582885742188 -10.98505783081055 143.63134765625
v -99.51132202148438 10.96170616149902 114.906982421875
v -30.75117301940918 -68.43743896484375 132.65353393554688
v -61.50102233886719 -103.94184112548828 92.95159912109375
v 30.75057220458984 -68.4378662109375 132.6534423828125
v 61.50160980224609 -103.94139862060547 92.95167541503906
v 49.75608062744141 -10.9857759475708 143.63121032714844
v 99.51111602783203 10.96240329742432 114.90712738037109
v 130.26229858398438 68.42185974121094 39.70473861694336
v 111.25708770751953 103.93405151367188 -6.77156257629395
v 149.26718139648438 10.9694938659668 28.72733116149902
v 149.26716613769531 -10.96949291229248 -28.72734451293945
v 130.26191711425781 -24.54242134094238 75.20496368408203
v 111.25745391845703 -81.99384307861328 64.2266845703125
v 30.75044441223145 -139.44593811035156 53.24956512451172
v -30.75044822692871 -139.44622802734375 53.24887084960938
v 61.50100708007812 -139.44139099121094 -0.01266990788281
v 30.75117301940918 -139.43632507324219 -53.27435684204102
v 111.25706481933594 -103.93404388427734 6.77155256271362
v 130.26226806640625 -68.42185974121094 -39.70475006103516
v 130.26188659667969 24.54241752624512 -75.2049560546875
v 111.25745391845703 81.99385833740234 -64.2266845703125
v 99.51109313964844 -10.96239471435547 -114.90712738037109
v 49.75605773925781 10.98577785491943 -143.6312255859375
v 99.51132202148438 -68.41748809814453 -92.96677398681641
v 49.75583267211914 -103.92400360107422 -99.75189208984375
v -30.75057411193848 -139.43658447265625 -53.27402496337891
v -61.50162506103516 -139.44113159179688 -0.01304006110877
v -49.75607681274414 -103.92441558837891 -99.75135040283203
v -99.51111602783203 -68.41704559326172 -92.96736145019531
v -0.0003885437909 -81.97642517089844 -128.47625732421875
v 0.0003648296115 -24.52200698852539 -150.41592407226562
v 30.75056457519531 68.43788146972656 -132.65345764160156
v 61.50162506103516 103.94142150878906 -92.95168304443359
v -30.75117301940918 68.43745422363281 -132.653564453125
v -61.50102615356445 103.94184112548828 -92.95159912109375
v -49.7558479309082 10.98506736755371 -143.63134765625
v -99.51134490966797 -10.96170616149902 -114.906982421875
v -130.26191711425781 -68.42228698730469 -39.70523834228516
v -111.25746917724609 -103.93360137939453 6.77202701568604
v -149.26718139648438 -10.97018623352051 -28.72707939147949
v -149.26716613769531 10.97019195556641 28.7270622253418
v -130.26228332519531 24.54241752624512 -75.20430755615234
v -111.25708770751953 81.99385833740234 -64.22733306884766
v -30.75044822692871 139.44622802734375 -53.24887084960938
v 30.75044822692871 139.44596862792969 -53.24957275390625
v -111.25746154785156 103.93361663818359 -6.77202367782593
v -130.26188659667969 68.42229461669922 39.70522308349609
v -130.26228332519531 -24.54240798950195 75.20429992675781
v -111.25708770751953 -81.99384307861328 64.22732543945312
# 60 vertices

o 截角二十面体
usemtl 材质
f 2 17 18 4 3 1
f 4 19 20 6 5 3
f 6 56 55 8 7 5
f 8 57 58 10 9 7
f 10 12 11 2 1 9
f 12 59 60 14 13 11
f 14 26 25 16 15 13
f 16 24 23 18 17 15
f 19 21 22 31 32 20
f 21 23 24 29 30 22
f 26 38 37 28 27 25
f 28 36 35 30 29 27
f 31 33 34 43 44 32
f 33 35 36 41 42 34
f 38 50 49 40 39 37
f 40 48 47 42 41 39
f 43 45 46 55 56 44
f 45 47 48 53 54 46
f 50 60 59 52 51 49
f 52 58 57 54 53 51
f 3 5 7 9 1
f 11 13 15 17 2
f 18 23 21 19 4
f 16 25 27 29 24
f 30 35 33 31 22
f 28 37 39 41 36
f 42 47 45 43 34
f 40 49 51 53 48
f 54 57 8 55 46
f 52 59 12 10 58
f 60 50 38 26 14
f 6 20 32 44 56

